# AST/ASF file generated using VICON BodyLanguage
# -----------------------------------------------
:version 1.10
:name VICON
:units
  mass 1.0
  length 0.45
  angle deg
:documentation
   .ast/.asf automatically generated from VICON data using
   VICON BodyBuilder and BodyLanguage model FoxedUp or BRILLIANT.MOD
:root
   order TX TY TZ RX RY RZ
   axis XYZ
   position 0 0 0  
   orientation 0 0 0 
:bonedata
  begin
     id 1 
     name lhipjoint
     direction 0.62366 -0.717238 0.310833 
     length 2.53602 
     axis 0 0 0  XYZ
  end
  begin
     id 2 
     name lfemur
     direction 0.34202 -0.939693 0  
     length 7.40817  
     axis 0 0 20  XYZ
    dof rx ry rz
    limits (-160.0 20.0)
           (-70.0 70.0)
           (-60.0 70.0)
  end
  begin
     id 3 
     name ltibia
     direction 0.34202 -0.939693 0   
     length 7.7045   
     axis 0 0 20   XYZ
    dof rx
    limits (-10.0 170.0)
  end
  begin
     id 4 
     name lfoot
     direction 0.0673888 -0.185149 0.980397   
     length 2.09456   
     axis -90 7.62852e-016 20   XYZ
    dof rx rz
    limits (-45.0 90.0)
           (-70.0 20.0)
  end
  begin
     id 5 
     name ltoes
     direction 1.53575e-011 -4.21994e-011 1   
     length 1.05543   
     axis -90 7.62852e-016 20   XYZ
    dof rx
    limits (-90.0 20.0)
  end
  begin
     id 6 
     name rhipjoint
     direction -0.489018 -0.800347 0.346851   
     length 2.27268  
     axis 0 0 0  XYZ 
  end
  begin
     id 7 
     name rfemur
     direction -0.34202 -0.939693 0   
     length 7.55487   
     axis 0 0 -20   XYZ
    dof rx ry rz
    limits (-160.0 20.0)
           (-70.0 70.0)
           (-70.0 60.0)
  end
  begin
     id 8 
     name rtibia
     direction -0.34202 -0.939693 0   
     length 7.78969   
     axis 0 0 -20   XYZ
    dof rx
    limits (-10.0 170.0)
 end
 begin
     id 9 
     name rfoot
     direction -0.0859318 -0.236096 0.967923   
     length 2.19143  
     axis -90 -7.62852e-016 -20   XYZ
    dof rx rz
    limits (-45.0 90.0)
           (-20.0 70.0)
  end
  begin
     id 10 
     name rtoes
     direction -1.53538e-011 -4.21989e-011 1   
     length 1.09845   
     axis -90 -7.62852e-016 -20   XYZ
    dof rx
    limits (-90.0 20.0)
  end
  begin
     id 11 
     name lowerback
     direction -0.00762546 0.998978 -0.0445553   
     length 1.98161   
     axis 0 0 0   XYZ
    dof rx ry rz
    limits (-20.0 45.0)
           (-30.0 30.0)
           (-30.0 30.0)
  end
  begin
     id 12 
     name upperback
     direction 0.0422361 0.998867 -0.0219156   
     length 1.97558   
     axis 0 0 0   XYZ
    dof rx ry rz
    limits (-20.0 45.0)
           (-30.0 30.0)
           (-30.0 30.0)
  end
  begin
     id 13 
     name thorax
     direction 0.0442465 0.999021 7.47603e-005   
     length 1.97799   
     axis 0 0 0   XYZ
    dof rx ry rz
    limits (-20.0 45.0)
           (-30.0 30.0)
           (-30.0 30.0)
  end
  begin
     id 14 
     name lowerneck
     direction 0.00312169 0.984641 0.174564   
     length 1.78995   
     axis 0 0 0   XYZ
    dof rx ry rz
    limits (-20.0 45.0)
           (-30.0 30.0)
           (-30.0 30.0)
  end
  begin
     id 15 
     name upperneck
     direction -0.0383028 0.985255 -0.166749   
     length 1.83053   
     axis 0 0 0   XYZ
    dof rx ry rz
    limits (-20.0 45.0)
           (-30.0 30.0)
           (-30.0 30.0)
  end
  begin
     id 16
     name head
     direction -0.0129546 0.997059 -0.0755386  
     length 1.84088  
     axis 0 0 0   XYZ
    dof rx ry rz
    limits (-20.0 45.0)
           (-30.0 30.0)
           (-30.0 30.0)
  end
  begin
     id 17 
     name lclavicle
     direction 0.912857 0.370519 -0.171488  
     length 3.51279  
     axis 0 0 0   XYZ
    dof ry rz
    limits (-20.0 10.0)
           (0.0 20.0)
  end
  begin
     id 18 
     name lhumerus
     direction 1 -4.48962e-011 3.64361e-027   
     length 4.95663   
     axis 180 -30 -90   XYZ
    dof rx ry rz
    limits (-60.0 90.0)
           (-90.0 90.0)
           (-90.0 90.0)
  end
  begin
     id 19
     name lradius
     direction 1 -4.48974e-011 5.97202e-027   
     length 3.38177   
     axis 180 -30 -90   XYZ
    dof rx
    limits (-10.0 170.0)
  end
  begin
     id 20
     name lwrist
     direction 1 -4.4896e-011 9.83288e-027   
     length 1.69088   
     axis -9.31221e-015 90 90   XYZ
    dof ry
    limits (-180.0 0.0)
 end
  begin
     id 21 
     name lhand
     direction 1 -4.4902e-011 1.96551e-026   
     length 0.662909   
     axis -1.25475e-014 90 90   XYZ
    dof rx rz
    limits (-90.0 90.0)
           (-45.0 45.0)
  end
  begin
     id 22 
     name lfingers
     direction 1 -4.48971e-011 3.93277e-026   
     length 0.534454   
     axis -2.50945e-014 90 90   XYZ
    dof rx
    limits (0.0 90.0)
  end
  begin
     id 23
     name lthumb
     direction 0.707107 -6.34933e-011 0.707107   
     length 0.767373   
     axis -90 45 -4.80359e-014   XYZ
    dof rx rz
    limits (-45.0 45.0)
           (-45.0 45.0)
  end
  begin
     id 24 
     name rclavicle
     direction -0.900919 0.395364 -0.178976   
     length 3.40627  
     axis 0 0 0   XYZ 
    dof ry rz
    limits (-10.0 20.0)
           (-20.0 0.0)
  end
  begin
     id 25 
     name rhumerus
     direction -1 -4.48969e-011 1.03875e-027  
     length 5.08365   
     axis 180 30 90   XYZ
    dof rx ry rz
    limits (-90.0 60.0)
           (-90.0 90.0)
           (-90.0 90.0)
  end
  begin
     id 26 
     name rradius
     direction -1 -4.48951e-011 5.02733e-027   
     length 3.35984   
     axis 180 30 90   XYZ
    dof rx
    limits (-10.0 170.0)
  end
  begin
     id 27 
     name rwrist
     direction -1 -4.49011e-011 9.82828e-027   
     length 1.67992   
     axis -9.31221e-015 -90 -90   XYZ
    dof ry
    limits (-180.0 0.0)
  end
  begin
     id 28
     name rhand
     direction -1 -4.48894e-011 1.96774e-026   
     length 0.820764   
     axis -1.25475e-014 -90 -90   XYZ
    dof rx rz
    limits (-90.0 90.0)
           (-45.0 45.0)
  end
  begin
     id 29
     name rfingers
     direction -1 -4.49095e-011 3.92833e-026   
     length 0.661721   
     axis -2.50945e-014 -90 -90   XYZ
    dof rx
    limits (0.0 90.0)
  end
  begin
     id 30
     name rthumb
     direction -0.707107 -6.34881e-011 0.707107   
     length 0.950103   
     axis -90 -45 4.80359e-014   XYZ
    dof rx rz
    limits (-45.0 45.0)
           (-45.0 45.0)
  end
:hierarchy
  begin
    root lhipjoint rhipjoint lowerback
    lhipjoint lfemur
    lfemur ltibia
    ltibia lfoot
    lfoot ltoes
    rhipjoint rfemur
    rfemur rtibia
    rtibia rfoot
    rfoot rtoes
    lowerback upperback
    upperback thorax
    thorax lowerneck lclavicle rclavicle
    lowerneck upperneck
    upperneck head
    lclavicle lhumerus
    lhumerus lradius
    lradius lwrist
    lwrist lhand lthumb
    lhand lfingers
    rclavicle rhumerus
    rhumerus rradius
    rradius rwrist
    rwrist rhand rthumb
    rhand rfingers
  end

#!OML:ASF I:\golf\golf\golf 2\Subject 1\2002-09-07\Subject1.ASF
:FULLY-SPECIFIED
:DEGREES
92
root -6.40727 17.728 0.917468 -12.1973 66.728 -27.911
lowerback 1.62519 -0.203109 -7.27236
upperback 3.75497 -0.243449 1.54063
thorax 3.03222 -0.339721 5.68931
lowerneck -15.1159 7.32892 3.05337
upperneck 36.3579 13.3461 -5.12538
head 16.0844 5.57158 -0.228549
rclavicle -2.14687e-014 6.36111e-015
rhumerus -14.7409 4.62859 -99.7137
rradius 51.6462
rwrist -63.7693
rhand -45.4531 -15.0015
rfingers 7.12502
rthumb -18.2196 -44.1682
lclavicle -2.14687e-014 6.36111e-015
lhumerus 44.8121 -80.281 53.4989
lradius 28.5939
lwrist 39.6876
lhand 10.7719 61.5881
lfingers 7.12502
lthumb -144.142 -92.0607
rfemur -32.6834 5.66022 21.8319
rtibia 27.7047
rfoot -7.74165 6.72601
rtoes 3.91747
lfemur -19.0908 13.8658 0.980474
ltibia 29.7393
lfoot -12.9719 13.1994
ltoes -21.8328
93
root -6.40017 17.7175 0.957247 -12.0442 65.611 -27.6956
lowerback 1.50534 -0.554623 -7.51298
upperback 3.7675 -0.700954 1.45754
thorax 3.18797 -0.581159 5.73154
lowerneck -14.8926 7.95564 3.03368
upperneck 36.0018 14.262 -5.21928
head 15.9175 5.9397 -0.109425
rclavicle 2.14687e-014 -5.08889e-014
rhumerus -14.9837 4.99478 -99.4113
rradius 52.8063
rwrist -63.7074
rhand -46.3622 -13.5478
rfingers 7.12502
rthumb -19.094 -42.6305
lclavicle 2.14687e-014 -5.08889e-014
lhumerus 47.2037 -79.8113 51.6131
lradius 28.5198
lwrist 38.3326
lhand 10.2696 59.7736
lfingers 7.12502
lthumb -144.618 -93.7604
rfemur -32.5393 5.92474 22.4408
rtibia 27.5649
rfoot -7.65204 7.65116
rtoes 4.66816
lfemur -18.4152 14.1672 1.54146
ltibia 29.9162
lfoot -13.2147 13.7386
ltoes -21.7719
94
root -6.3961 17.7107 1.00496 -11.8327 64.3766 -27.5957
lowerback 1.17632 -0.836034 -7.79666
upperback 3.71327 -1.05184 1.40565
thorax 3.37961 -0.771546 5.82753
lowerneck -14.5237 8.55245 3.15171
upperneck 35.5563 15.1096 -5.40272
head 15.6951 6.29853 -0.0734254
rclavicle -5.64548e-014 3.97569e-014
rhumerus -15.1011 4.80919 -98.9115
rradius 54.1489
rwrist -64.1017
rhand -47.2437 -13.2986
rfingers 7.12502
rthumb -19.9416 -42.2954
lclavicle -5.64548e-014 3.97569e-014
lhumerus 48.9739 -79.3599 50.4147
lradius 28.4459
lwrist 36.7512
lhand 9.81117 58.1999
lfingers 7.12502
lthumb -145.053 -95.2317
rfemur -32.5815 6.54273 23.0743
rtibia 27.4962
rfoot -7.64177 8.26744
rtoes 4.62127
lfemur -17.8915 14.7786 2.15656
ltibia 30.0812
lfoot -13.4659 14.2147
ltoes -21.9123
95
root -6.38879 17.7041 1.04863 -11.7908 63.0857 -27.7252
lowerback 0.799804 -1.07769 -7.70886
upperback 3.65193 -1.34605 1.27424
thorax 3.56829 -0.920165 5.62549
lowerneck -14.1653 9.12545 3.36607
upperneck 35.0589 15.9084 -5.65743
head 15.4724 6.64415 -0.0920898
rclavicle -2.54444e-014 -9.54166e-015
rhumerus -15.0314 3.60773 -98.3682
rradius 55.6691
rwrist -64.7229
rhand -47.7273 -14.7921
rfingers 7.12502
rthumb -20.4063 -43.7398
lclavicle -2.54444e-014 -9.54166e-015
lhumerus 50.5235 -78.8835 49.4276
lradius 28.2843
lwrist 34.9932
lhand 9.72232 56.0851
lfingers 7.12502
lthumb -145.137 -97.3269
rfemur -32.6641 7.13592 23.8293
rtibia 27.4532
rfoot -7.53015 9.01349
rtoes 5.36082
lfemur -17.4143 15.3504 2.89087
ltibia 30.2777
lfoot -13.8073 14.616
ltoes -20.5623
96
root -6.38337 17.6954 1.1121 -11.7399 61.6626 -27.5749
lowerback 0.581382 -1.28704 -8.05519
upperback 3.68544 -1.60062 1.22171
thorax 3.77988 -1.06728 5.75325
lowerneck -13.9399 9.71663 3.39965
upperneck 34.6266 16.7802 -5.87076
head 15.3008 6.99698 -0.0434344
rclavicle -3.89618e-014 2.8625e-014
rhumerus -15.0462 3.2193 -97.9824
rradius 57.0234
rwrist -64.6674
rhand -48.7206 -13.8403
rfingers 7.12502
rthumb -21.3607 -42.6829
lclavicle -3.89618e-014 2.8625e-014
lhumerus 51.8466 -78.2272 48.7468
lradius 28.0301
lwrist 32.9971
lhand 9.7336 53.8456
lfingers 7.12502
lthumb -145.126 -99.569
rfemur -32.4193 7.95259 24.549
rtibia 27.4209
rfoot -7.40759 9.71112
rtoes 6.99372
lfemur -16.5064 16.0271 3.697
ltibia 30.5145
lfoot -14.0426 14.8869
ltoes -19.7351
97
root -6.38069 17.6842 1.16701 -12.223 60.6679 -27.8429
lowerback 0.566538 -1.60662 -8.3028
upperback 3.79826 -2.0181 1.25737
thorax 3.98909 -1.29673 5.91322
lowerneck -13.7844 10.264 3.37912
upperneck 34.2473 17.5864 -6.03414
head 15.158 7.3202 0.0259882
rclavicle 7.31528e-014 -1.11319e-014
rhumerus -14.9347 2.98151 -97.4501
rradius 58.44
rwrist -64.5247
rhand -50.1139 -12.3544
rfingers 7.12502
rthumb -22.6984 -41.0394
lclavicle 7.31528e-014 -1.11319e-014
lhumerus 54.392 -77.5861 46.9869
lradius 27.7714
lwrist 31.2601
lhand 9.43602 52.4621
lfingers 7.12502
lthumb -145.409 -100.887
rfemur -32.0158 8.44774 25.3298
rtibia 27.4125
rfoot -7.38521 10.2025
rtoes 7.98605
lfemur -15.7018 16.45 4.56005
ltibia 30.7594
lfoot -14.0537 15.1068
ltoes -20.5572
